<?xml version="1.0" encoding="UTF-8"?>
<svg version="1.1" xmlns="http://www.w3.org/2000/svg" width="1080" height="1080">
<path d="M0 0 C356.4 0 712.8 0 1080 0 C1080 356.4 1080 712.8 1080 1080 C723.6 1080 367.2 1080 0 1080 C0 723.6 0 367.2 0 0 Z " fill="#FEFEFF" transform="translate(0,0)"/>
<path d="M0 0 C4.92609941 3.72461175 6.77462469 8.44747044 9 14 C9.495 14.99 9.495 14.99 10 16 C12.71575692 54.59936471 -12.66235054 95.04899943 -35 125 C-35.58007812 125.78246094 -36.16015625 126.56492187 -36.7578125 127.37109375 C-38.46419208 129.6174147 -40.21733034 131.81363962 -42 134 C-42.40911621 134.50466797 -42.81823242 135.00933594 -43.23974609 135.52929688 C-61.28081116 157.64040558 -61.28081116 157.64040558 -70 162 C-70.56267346 163.79590236 -70.56267346 163.79590236 -70.8515625 165.98046875 C-71.04552612 167.22231934 -71.04552612 167.22231934 -71.2434082 168.48925781 C-71.3693335 169.37967773 -71.49525879 170.27009766 -71.625 171.1875 C-71.75543701 172.09209961 -71.88587402 172.99669922 -72.02026367 173.92871094 C-74.46755984 191.08861748 -74.46755984 191.08861748 -69 206.9375 C-66.30737989 209.71426449 -65.41976982 209.95502466 -61.5 210.375 C-53.54571672 210.20270506 -47.52424023 205.81823023 -41.9375 200.5 C-36.546967 194.80482149 -32.18278782 188.59717693 -28 182 C-27.45601563 181.16339844 -26.91203125 180.32679688 -26.3515625 179.46484375 C-22.31854656 172.73248116 -20.17214113 165.57154466 -17.82250977 158.13867188 C-14.34529111 147.46645362 -9.51742152 136.48281671 -2 128 C0.93300732 126.53349634 2.72037344 126.63559705 6 127 C9.66886951 128.70486501 12.81111039 130.63544333 15.48046875 133.69921875 C16.34896945 137.54543612 13.97422465 140.34905026 12.0625 143.5625 C3.6561679 158.52032245 -2.02353048 173.96526266 -2.3125 191.1875 C-2.33046631 191.94877197 -2.34843262 192.71004395 -2.36694336 193.49438477 C-2.35839457 198.7142763 -1.46495333 202.37596347 1 207 C3.99181417 208.49590709 5.6416206 208.42743011 9 208 C19.3735507 202.97621019 26.22671315 193.34979803 32.0625 183.75 C32.60124756 182.8724707 33.13999512 181.99494141 33.69506836 181.09082031 C42.77018574 166.02475299 51.05111876 150.150517 58 134 C64.50045699 134.55323038 71.27075659 136.27075659 76 141 C76.54743861 145.94499989 75.19480626 149.73831564 73.26171875 154.19921875 C72.98028519 154.87491409 72.69885162 155.55060944 72.40888977 156.2467804 C71.5117141 158.39802795 70.60087507 160.5430857 69.6875 162.6875 C60.40200223 184.04658095 60.40200223 184.04658095 59 207 C60.15354803 209.34422903 60.15354803 209.34422903 62 211 C70.18601719 212.29936781 76.18038151 209.42376758 83 205 C94.05520966 196.29875133 104.69878412 185.20320789 110.20703125 172.13671875 C112.7279083 166.22615266 115.498319 160.43060615 118.25 154.625 C119.07177734 152.85382813 119.07177734 152.85382813 119.91015625 151.046875 C124.08545931 142.26602688 128.65843252 134.01602413 136.5625 128.0625 C137.26503906 127.51722656 137.96757813 126.97195313 138.69140625 126.41015625 C146.62264824 121.56552282 155.97508543 122.27057692 164.875 123.5625 C173.97114675 127.74672751 178.45888961 134.8253049 182 144 C182 144.99 182 145.98 182 147 C186.15614299 143.41838266 190.24360121 139.78104602 194.24682617 136.02856445 C213.94974269 117.63128216 213.94974269 117.63128216 222.5 116.5625 C226.60522999 117.07565375 228.18063554 118.01479057 231 121 C231.6328125 123.140625 231.6328125 123.140625 232 125 C230.948125 125.28875 229.89625 125.5775 228.8125 125.875 C216.44367587 130.59724809 206.07670878 142.20259279 196.79589844 151.29882812 C195.2348009 152.77758392 193.58073587 154.15696975 191.9140625 155.515625 C188.70190816 158.34232082 186.24262451 160.61248367 185.79199219 165.046875 C185.82382622 170.80638594 186.8649202 176.37174863 188 182 C188.24487265 183.35261493 188.48846451 184.70546267 188.73046875 186.05859375 C189.94783675 192.30685272 191.56123846 198.12480174 194 204 C194.33 204.99 194.66 205.98 195 207 C199.86350831 208.62116944 204.48845943 209.13062479 209.2734375 206.9765625 C220.81311499 199.64785504 234.40917723 185.46589794 237.7890625 171.8125 C238.06492187 170.554375 238.34078125 169.29625 238.625 168 C242.15180662 153.10111245 247.79545689 135.60733245 259.0625 124.75 C262 123 262 123 264.75 122.8125 C269.50535125 124.55003219 274.12612929 126.70246787 278 130 C279.20889103 133.03709099 279.25949101 134.37903903 277.99609375 137.40234375 C277.48175781 138.23894531 276.96742188 139.07554687 276.4375 139.9375 C268.34218518 153.93056158 261.91189525 169.74148556 261.6875 186.0625 C261.65849609 186.76955078 261.62949219 187.47660156 261.59960938 188.20507812 C261.55732657 191.66901559 261.72629384 193.62492119 263.79296875 196.45703125 C266.42188728 198.29494775 268.50997752 198.67729937 271.70703125 198.52734375 C276.91230128 197.33022032 281.94301608 194.09552226 285.66796875 190.30078125 C287 189 287 189 289 189 C289.25652344 188.42121094 289.51304687 187.84242188 289.77734375 187.24609375 C291.1147796 184.7891429 292.63738445 183.08873273 294.5625 181.0625 C302.71605232 171.9269505 308.29769933 164.83608485 310.046875 152.68823242 C311.0901112 145.56379851 313.09409034 140.40957181 318.67578125 135.78125 C322.55776417 133.70112754 325.59653416 133.53441839 329.875 133.75 C330.56335938 133.76804687 331.25171875 133.78609375 331.9609375 133.8046875 C333.6412381 133.85136252 335.32081163 133.92309061 337 134 C335.92144306 161.98855263 323.87846979 189.7138194 315 216 C338.0479648 204.01742523 351.74948147 189.90833232 362 166 C363.9375 166.6875 363.9375 166.6875 366 168 C367.28950359 171.17890668 367.05037825 172.82455226 366.1015625 176.12890625 C359.08476161 192.44575277 348.12784943 204.84735446 333.75 215.1875 C333.09580078 215.66251953 332.44160156 216.13753906 331.76757812 216.62695312 C328.45668474 218.93281067 325.38955685 220.84346123 321.6262207 222.35571289 C311.34073751 226.58880951 307.83989747 231.73405472 303.60229492 241.8581543 C303.3004126 242.58558838 302.99853027 243.31302246 302.6875 244.0625 C301.43850482 246.93645182 300.16539307 249.79930323 298.88671875 252.66015625 C298.42198402 253.71245422 298.42198402 253.71245422 297.94786072 254.78601074 C294.68555698 262.0128233 290.49861953 268.49063793 286 275 C285.50862549 275.71905518 285.01725098 276.43811035 284.51098633 277.17895508 C277.25575595 287.54088637 269.00944428 296.17682341 256.5625 299.6875 C248.11569536 300.71759813 242.87511201 299.68276985 235.75 294.75 C231.40891836 290.40891836 229.85672585 286.24285782 229.5625 280.1875 C229.99094835 269.29502468 235.48789006 262.42632728 243 255 C243.65613281 254.32195312 244.31226563 253.64390625 244.98828125 252.9453125 C254.34550053 243.89697231 276.6784166 228 290 228 C290.09796875 227.37351562 290.1959375 226.74703125 290.296875 226.1015625 C291.28498141 221.74291536 292.79176642 217.59591918 294.25 213.375 C297.65805626 203.36245695 300.45502017 193.26201546 303 183 C302.29037109 183.90878906 302.29037109 183.90878906 301.56640625 184.8359375 C281.2970746 210.51832653 281.2970746 210.51832653 267 213 C258.15122426 213.92543013 250.18556268 213.73259964 243 208 C239.61478832 204.03648133 237.2819284 199.65893715 235 195 C234.30777344 195.90878906 234.30777344 195.90878906 233.6015625 196.8359375 C225.9699244 206.63942517 218.22725108 215.35844597 207 221 C206.35675781 221.33902344 205.71351563 221.67804688 205.05078125 222.02734375 C199.02884317 224.76688372 192.47480046 224.95893618 186 224 C179.13217368 221.24681852 175.2161919 216.48020821 172 210 C171.64292969 209.32195312 171.28585937 208.64390625 170.91796875 207.9453125 C167.81091891 201.59157013 166.40748418 194.89880503 165 188 C151.16534468 203.98177358 151.16534468 203.98177358 137.75 220.3125 C137.11835937 221.10011719 136.48671875 221.88773438 135.8359375 222.69921875 C134.59668421 224.25224043 133.37298669 225.81778544 132.1640625 227.39453125 C127.78701378 232.85150683 127.78701378 232.85150683 123.6875 233.625 C121 233 121 233 119 231 C117.78852862 223.88260565 121.17763773 218.82209234 125 213 C128.46221105 208.17142665 132.21453668 203.57658833 136 199 C136.46100098 198.43990234 136.92200195 197.87980469 137.39697266 197.30273438 C143.24740048 190.21811811 149.32339076 183.37492125 155.58984375 176.65625 C160.04811609 172.30779043 160.04811609 172.30779043 162.27734375 166.78125 C161.88923614 164.17602191 161.48974978 161.58867743 161 159 C160.79890625 157.90171875 160.5978125 156.8034375 160.390625 155.671875 C158.85666644 146.96792592 158.85666644 146.96792592 154 140 C150.46138638 139.11534659 147.50522387 138.97701621 144 140 C138.54482286 143.58003355 135.05937981 148.33064858 131.6875 153.8125 C131.22601562 154.54227051 130.76453125 155.27204102 130.2890625 156.02392578 C126.46821323 162.11307895 122.81481335 168.305725 119.26049805 174.55395508 C118.87547119 175.22450928 118.49044434 175.89506348 118.09375 176.5859375 C117.76052734 177.1742334 117.42730469 177.7625293 117.08398438 178.36865234 C115.89712496 180.1548223 114.52886937 181.50192836 113 183 C111.60038624 185.00386468 110.22858984 187.02726367 108.875 189.0625 C104.71570836 195.17764902 100.1930887 200.71596404 95 206 C94.31550781 206.69738281 93.63101563 207.39476562 92.92578125 208.11328125 C83.03818542 217.52568763 70.21672691 224.86792537 56.4375 225.5 C50.46402369 225.325541 46.21296172 224.39023981 42 220 C36.76888374 212.81528786 36.29628361 202.55350777 35 194 C34.45472656 194.75023437 33.90945313 195.50046875 33.34765625 196.2734375 C15.62325296 220.33014898 15.62325296 220.33014898 5 224 C-0.65425299 224.59902939 -6.71919789 225.12079905 -11.9375 222.5 C-20.66957505 215.37177547 -24.37270938 205.98823962 -26 195 C-26.7734375 195.92941406 -27.546875 196.85882812 -28.34375 197.81640625 C-39.15164694 210.69297502 -50.82618518 223.44949429 -68.53515625 225.38671875 C-76.68102274 225.63937129 -82.44614694 224.91546245 -88.671875 219.5625 C-96.7450078 211.24957118 -97.53598634 201.13909862 -97.40454102 190.109375 C-97.14319663 181.52818885 -95.950676 173.34889327 -94 165 C-93.82839355 164.25572754 -93.65678711 163.51145508 -93.47998047 162.74462891 C-81.05205096 110.00089589 -50.86504009 35.39776525 -7 1 C-4.35955695 -0.32022153 -2.93650531 -0.40974493 0 0 Z " fill="#5372FF" transform="translate(486,396)"/>
<path d="M0 0 C0.7134256 0.0015509 1.4268512 0.00310181 2.16189575 0.00469971 C15.60768243 0.03904688 28.8351928 0.50805798 42.1875 2.1875 C55.84837266 3.88736833 68.91297963 2.85385924 82.5 1.125 C84.01299061 0.93595587 85.52601018 0.74714335 87.0390625 0.55859375 C88.18117188 0.41550781 89.32328125 0.27242188 90.5 0.125 C88.53784352 2.50024206 86.54480981 4.82150943 84.5 7.125 C83.44425781 8.31802734 83.44425781 8.31802734 82.3671875 9.53515625 C73.89399178 18.58162099 64.15707119 25.58713568 51.44897461 26.22851562 C45.33354499 26.36479261 39.41610206 25.56049163 33.375 24.6875 C24.41523571 23.44935793 15.53598462 22.53897086 6.5 22.125 C6.33491943 22.70475586 6.16983887 23.28451172 5.99975586 23.88183594 C3.9745763 30.82726416 1.55432958 37.58559534 -0.9375 44.375 C-5.91104605 58.07741569 -10.32279684 71.93877531 -14.65209961 85.85644531 C-14.90144257 86.65700348 -15.15078552 87.45756165 -15.40768433 88.28237915 C-15.87786377 89.79430261 -16.34623445 91.30679012 -16.81253052 92.81991577 C-18.39045002 97.90590005 -18.39045002 97.90590005 -19.5 100.125 C-18.88511719 100.11339844 -18.27023437 100.10179687 -17.63671875 100.08984375 C-16.82847656 100.08082031 -16.02023437 100.07179688 -15.1875 100.0625 C-13.98673828 100.04509766 -13.98673828 100.04509766 -12.76171875 100.02734375 C-10.5 100.125 -10.5 100.125 -7.5 101.125 C-4.94204727 101.40348605 -2.39603169 101.64102477 0.16796875 101.84375 C1.29843376 101.93795227 1.29843376 101.93795227 2.45173645 102.03405762 C4.86338397 102.23453634 7.27539832 102.43006811 9.6875 102.625 C12.08168298 102.82063081 14.47576528 103.0173589 16.8697052 103.21594238 C18.35774052 103.33915909 19.84592337 103.46061206 21.33427429 103.57995605 C26.07624299 103.96977986 30.78206479 104.50790427 35.5 105.125 C33.103932 110.36639875 29.62757483 112.83025201 24.5 115.125 C8.58787866 120.19175443 -8.9892843 119.31526433 -25.5 119.125 C-25.7475 120.32125 -25.995 121.5175 -26.25 122.75 C-28.10051549 131.0326521 -30.60966064 139.14482991 -33.03515625 147.2734375 C-36.47716218 158.86082393 -39.71312224 170.48833569 -42.75 182.1875 C-43.0790332 183.44618896 -43.40806641 184.70487793 -43.74707031 186.00170898 C-47.24353748 199.60989492 -49.82375829 213.07483231 -51.1875 227.0625 C-51.31705078 228.33029297 -51.44660156 229.59808594 -51.58007812 230.90429688 C-51.89317402 233.97727515 -52.19975084 237.05074471 -52.5 240.125 C-54.07749269 240.00317421 -55.654181 239.87090948 -57.23046875 239.734375 C-58.10856201 239.66186523 -58.98665527 239.58935547 -59.89135742 239.51464844 C-66.36541547 238.54762957 -71.35944799 235.1180186 -75.5 230.125 C-81.58492465 219.19784658 -77.96537462 200.46913567 -74.8828125 188.87890625 C-74.42925812 187.29214187 -73.96778698 185.70762697 -73.5 184.125 C-73.23155273 183.21089355 -72.96310547 182.29678711 -72.68652344 181.35498047 C-68.99712138 169.00181643 -64.76335087 156.84746276 -60.3125 144.75 C-59.70704346 143.10269897 -59.70704346 143.10269897 -59.08935547 141.42211914 C-56.50714897 134.51600944 -53.64232884 127.79466971 -50.5 121.125 C-51.60287354 121.26131836 -51.60287354 121.26131836 -52.72802734 121.40039062 C-56.10962498 121.81478908 -59.49227059 122.21994826 -62.875 122.625 C-64.03128906 122.76808594 -65.18757813 122.91117188 -66.37890625 123.05859375 C-73.12477351 123.85895088 -79.70679329 124.33467886 -86.5 124.125 C-85.26672587 116.45129433 -82.01726742 111.42984066 -75.6953125 106.8046875 C-65.50942874 100.69315724 -54.0928683 99.76645768 -42.5 100.125 C-42.38245361 99.43414307 -42.26490723 98.74328613 -42.14379883 98.03149414 C-41.41958069 94.761939 -40.3632255 91.76170734 -39.19921875 88.62109375 C-38.96686523 87.99368286 -38.73451172 87.36627197 -38.49511719 86.71984863 C-37.73124776 84.66535972 -36.96023314 82.61367049 -36.1875 80.5625 C-35.92288971 79.85747345 -35.65827942 79.1524469 -35.38565063 78.42605591 C-27.93965413 58.63305257 -19.64574068 39.19480438 -10.5 20.125 C-14.39271659 20.16989066 -18.28413256 20.24045427 -22.17602539 20.33251953 C-24.13339705 20.3738574 -26.09114122 20.39618367 -28.04882812 20.41796875 C-39.47060158 20.70859912 -50.54640002 22.06682355 -58.984375 30.3984375 C-64.37407115 36.538246 -65.87272153 43.15339986 -65.8125 51.1875 C-65.80976074 51.9297583 -65.80702148 52.6720166 -65.80419922 53.43676758 C-65.63615895 62.4327162 -63.38771536 70.65018317 -60.5 79.125 C-68.80519366 78.58335694 -75.87664319 75.32240782 -81.5 69.125 C-86.9733244 62.59911322 -87.00439474 56.33482932 -86.5 48.125 C-85.09605444 36.95275718 -78.59795313 27.61560664 -70.5 20.125 C-67.00746411 17.41828468 -63.38252464 15.22782704 -59.5 13.125 C-58.40042969 12.52816406 -57.30085938 11.93132812 -56.16796875 11.31640625 C-38.42780806 2.17997914 -19.67808274 -0.07548302 0 0 Z " fill="#5371FF" transform="translate(346.5,397.875)"/>
<path d="M0 0 C2.86211217 36.49193016 -34.44801863 85.10083218 -56.54614258 110.98803711 C-57.69506744 112.32738696 -58.84716994 113.66401002 -60 115 C-61 113 -61 113 -60.46191406 110.96655273 C-60.14963867 110.13067627 -59.83736328 109.2947998 -59.515625 108.43359375 C-59.16322754 107.48597168 -58.81083008 106.53834961 -58.44775391 105.56201172 C-58.05249512 104.53092285 -57.65723633 103.49983398 -57.25 102.4375 C-56.63970947 100.83285889 -56.63970947 100.83285889 -56.01708984 99.19580078 C-17.78251183 0 -17.78251183 0 0 0 Z " fill="#FAFBFF" transform="translate(482,424)"/>
<path d="M0 0 C0 3.991975 -1.67056806 6.83117207 -3.4375 10.3125 C-3.79658447 11.02164551 -4.15566895 11.73079102 -4.52563477 12.46142578 C-11.16755549 25.33220888 -19.02572529 38.42793985 -31 47 C-34.625 47.5625 -34.625 47.5625 -38 47 C-40.5133649 44.32448253 -40.94497804 42.35764273 -41.5 38.75 C-40.19636015 28.97270115 -33.25822429 22.16335561 -26 16 C-17.85829094 9.85217887 -9.0749718 4.64125377 0 0 Z " fill="#FCFCFF" transform="translate(769,637)"/>
</svg>
